<svg xmlns="http://www.w3.org/2000/svg" width="100" height="100" fill="none" viewBox="0 0 100 100">
  <path fill="#7BB3FF" d="M100 50c0 27.614-22.386 50-50 50S0 77.614 0 50 22.386 0 50 0s50 22.386 50 50z"/>
  <rect width="40" height="35" x="30.5" y="47.5" fill="#E9E9E9" stroke="#363636" rx="1.5"/>
  <rect width="60" height="26" x="19.5" y="22.5" fill="#E6E6E6" stroke="#3D3D3D" rx="3.5"/>
  <g filter="url(#filter0_f)">
    <rect width="49" height="21" x="25" y="25" fill="#CBCBCB" rx="4"/>
  </g>
  <circle cx="32.5" cy="32.5" r="5.3" fill="#9EB4D5" stroke="#222" stroke-width="2.4"/>
  <circle cx="64.5" cy="32.5" r="5.25" fill="#9EB4D5" stroke="#222" stroke-width="2.5"/>
  <path stroke="#434343" stroke-width="3" d="M31.206 55.029l-5.44 7.2L12 50.5M69.284 54L81 62.229"/>
  <path fill="#EAEAEA" stroke="#696969" d="M36.846 45.5l-1.093-2.916 13.194 1.413.053.006.053-.006 13.194-1.413-1.093 2.916H36.846z"/>
  <path fill="#CB0F0F" d="M48.5 34l3.031 5.25H45.47L48.5 34z"/>
  <path stroke="#434343" stroke-width="2.5" d="M81 61L65 74"/>
  <path fill="#C4C4C4" d="M40.122 55.468l9.789 7.932-7.14 4.385-2.649-12.317z"/>
  <circle cx="49" cy="62" r="4" fill="#B09A25"/>
  <circle cx="40" cy="61" r="5" fill="#B02525"/>
  <defs>
    <filter id="filter0_f" width="57" height="29" x="21" y="21" color-interpolation-filters="sRGB" filterUnits="userSpaceOnUse">
      <feFlood flood-opacity="0" result="BackgroundImageFix"/>
      <feBlend in="SourceGraphic" in2="BackgroundImageFix" result="shape"/>
      <feGaussianBlur result="effect1_foregroundBlur" stdDeviation="2"/>
    </filter>
  </defs>
</svg>
