<svg xmlns="http://www.w3.org/2000/svg" width="770" height="822" fill="none" viewBox="0 0 770 822">
  <ellipse cx="385" cy="385.133" fill="#E7531A" rx="385" ry="385.133"/>
  <g clip-path="url(#clip0)" filter="url(#filter0_d)">
    <path fill="#D0C299" d="M280.877 562.396H505.8v126.852H280.877z"/>
    <path fill="#DFD3B0" d="M275.07 570.875l-4.125 54.593-53.624 8.734v-30.571l8.25-24.021 16.5-26.204 14.437-15.286 14.437 6.551 4.125 26.204z"/>
    <path fill="#554739" d="M423.567 607.998l-22.687 6.551-4.125 8.735H376.13l2.063-30.572 41.249-8.735 20.624 8.735v15.286h-16.499z"/>
    <path fill="#D0C299" stroke="#D0C299" d="M473.066 632.019l-59.812-4.368-24.749-4.367 12.375-15.286 43.311-4.367 28.875 28.388z"/>
    <path fill="#8C8372" d="M355.506 638.57l-35.062 4.367-14.437-13.102v-65.511l28.874-6.551h20.625l30.937 24.021v37.123h8.249l6.188-8.735 18.562 8.735v10.918h-39.187l-24.749 8.735z"/>
    <path fill="#AC9F8D" d="M210.149 595.537l36.941-10.803v49.693l-7.389 20.526-7.388 21.606-14.776 11.883-7.388 11.883-14.776-3.241v-45.372l4.926-54.015 9.85-2.16z"/>
    <path fill="#342E1B" d="M252.383 649.488l-30.937 39.307v-74.246l49.499-8.735 4.125-13.102h45.374l8.25 13.102-8.25 8.735-4.125 28.388h-26.812l-37.124 6.551z"/>
    <path fill="#765D42" d="M188.447 557.773l26.812-30.572 39.186-8.734 37.125 6.551 26.811 56.776v26.204h-49.499v-50.225l-10.312-10.918-6.187 10.918-30.937 37.123-26.812 13.102-6.187-50.225z"/>
    <path fill="#685935" d="M314.257 575.243h45.374l-22.687-32.756 16.499-8.734-30.937-10.919h-49.499l18.563 10.919 22.687 41.49z"/>
    <path fill="#DFD3B0" d="M328.694 525.018l72.186 2.183 18.562 6.552 20.624 61.143H384.38l-30.937-26.204-24.749-43.674z"/>
    <path fill="#F1D3C3" d="M456.566 315.383h8.25v157.226h-8.25z"/>
    <path fill="#C4C4C4" d="M382.318 267.342h53.624v122.287h-53.624z"/>
    <path fill="#9D9175" d="M326.084 294.729l25.707-10.162 137.774 371.472-54.917-53.447-108.564-307.863z"/>
    <path fill="#E2D6B6" d="M341.068 291.788l47.699-20.079 164.735 384.33h-68.061L341.068 291.788z"/>
    <path fill="#9B8B71" d="M316.319 319.751h49.499v109.184h-41.249l-8.25-109.184z"/>
    <path fill="#726449" fill-opacity=".39" d="M328.53 289.385l76.475-13.308 8.249 181.246-35.125-11.722-49.599-156.216z"/>
    <path fill="#3C3120" d="M310.132 389.629l-30.937-4.368 20.624-48.041-8.25-28.388 4.125-15.286 45.374-10.918 12.375 2.911 10.313-18.197 16.499 15.286v10.918l4.125 10.919 8.25 10.918 8.25 17.47 53.624 157.226 65.998 165.96h-12.374l-115.498-307.9-12.375-39.307-20.624-4.367-18.563 4.367 6.188 15.286-18.562 8.735-14.437-8.735-4.125 65.511z"/>
    <path fill="#5B4C2D" d="M422.495 40.238h5.554V146.44h-5.554z"/>
    <path fill="#E7E8D5" d="M422.495 117.847h5.554v28.593h-5.554z"/>
    <path fill="#574636" d="M254.445 424.568V396.18l26.812-6.551V420.2H266.82l-4.125 10.919v13.102h-10.312v-8.735l2.062-10.918z"/>
    <path fill="#776C52" d="M291.57 391.812l-37.125 4.368-12.374-24.021V223.668l43.311-48.041 22.687 8.735 10.312 21.836 49.499 72.062-14.437 10.919-57.749 6.551v4.367l8.25 10.919 8.25 13.102-4.125 26.204-16.499 41.49z"/>
    <path fill="#A89776" d="M651.448 421.31l8.435-7.307a32.058 32.058 0 008.725-36.259l-2.726-6.734a45.324 45.324 0 00-8.599-13.619L531.658 220.288a50.077 50.077 0 00-6.31-5.799l-87.865-67.834a49.996 49.996 0 00-17.135-8.588l-54.045-15.059a50.005 50.005 0 00-29.581.849l-34.158 11.667a50.002 50.002 0 00-24.443 18.138l-51.152 71.18a49.996 49.996 0 00-8.906 36.166l23.108 163.734a7.412 7.412 0 007.339 6.377c4.316 0 7.719-3.672 7.392-7.974l-12.677-166.819a49.996 49.996 0 016.355-28.44l12.294-21.694a47.372 47.372 0 0113.006-14.702l7.629-5.654a18.602 18.602 0 0111.079-3.658c10.276 0 18.606 8.33 18.606 18.606v6.256a24.864 24.864 0 007.016 17.31l65.851 67.887a50.007 50.007 0 0012.496 9.377l145.792 77.181a50.01 50.01 0 017.493 4.87l49.483 38.872a40.176 40.176 0 0051.123-1.227z"/>
    <path fill="#C3B38B" d="M462.753 328.485l-28.874-15.286h-6.187l-28.875-15.285-39.186-28.388-49.499-69.879 4.125-30.571h14.437l35.062 13.102 57.748 6.551 80.436 4.367 78.374 76.43h-28.875l-22.687 6.551-26.812 21.837-8.25 15.285-30.937 15.286z"/>
    <path fill="#323232" fill-rule="evenodd" d="M454.477 211.268l-38.003.821c.599-7.115 8.638-12.826 18.64-12.986 9.9-.157 18.203 5.181 19.363 12.165zm.085 2.723l-37.952.82c1.277 6.891 9.519 12.131 19.33 11.975 9.913-.158 17.897-5.769 18.622-12.795z" clip-rule="evenodd"/>
    <path fill="#E7DDC3" fill-opacity=".5" d="M347.256 129.769l-41.249 4.368 16.499-4.368 14.438-6.551h26.812l24.749 6.551 30.937 8.735 22.687 10.918 22.687 15.286 30.937 26.205 28.874 24.02 14.437 13.102 26.812 28.388 96.936 115.736-101.061-115.736-28.874-28.388-14.437-13.102-28.875-24.02-30.936-21.837-30.937-19.654-39.187-15.285-28.874-4.368h-12.375z"/>
    <path fill="#C3B38B" d="M510.19 324.118l20.625 48.041 72.186 28.388 8.249-10.918 14.438-17.47 18.562-8.735 22.687 8.735-80.436-91.715h-12.375l-39.186 6.551-24.75 21.837v15.286z"/>
    <path fill="#3C3120" fill-opacity=".3" d="M453.099 232.261l160.338 144.912c.42.379.659.918.659 1.484v3.391l-3.63 44.941c-.136 1.693-2.189 2.456-3.398 1.262l-20.62-20.348a1.938 1.938 0 00-.395-.303l-160.657-93.954a2.004 2.004 0 01-.236-.161l-45.603-36.288-35.778-32.097-29.308-27.346a2.001 2.001 0 01-.612-1.156l-3.607-23.3a2 2 0 00-1.976-1.694h-7.498c-.469 0-.924.165-1.284.467l-17.062 14.286c-.178.15-.329.329-.445.53l-19.43 33.467c-.177.305-.27.652-.27 1.005v50.817l3.975 32.097v31.913c0 .123.011.245.034.366l5.895 31.735c.023.12.034.243.034.365v44.415a2 2 0 01-2.421 1.956l-15.876-3.419a2 2 0 01-1.579-1.955v-21.923l-11.926-102.711-3.945-53.082c-.02-.273.016-.547.106-.806l11.714-33.629c.05-.143.117-.281.198-.41l33.442-52.945c.148-.235.344-.437.575-.592l46.087-31.01a2 2 0 012.422.144l28.658 24.682 47.703 34.237 45.716 40.657z"/>
    <path fill="#9D6946" d="M673.124 391.812L662.812 420.2l-30.937 13.103-20.437-4.368h-2.25l2.25-26.204 61.686-10.919z"/>
    <path fill="#806E4D" d="M308.069 295.73l-28.874-10.919 4.125-63.327 24.749 13.102 28.875 21.837v15.286l-8.25 13.102-20.625 10.919z"/>
    <ellipse cx="279.195" cy="252.056" fill="#837961" rx="20.625" ry="32.755"/>
    <ellipse cx="279.195" cy="254.24" fill="#B5AA8E" rx="16.5" ry="26.204"/>
  </g>
  <defs>
    <clipPath id="clip0">
      <path fill="#fff" d="M0 0h497.052v781.762H0z" transform="translate(178.134 40.238)"/>
    </clipPath>
    <filter id="filter0_d" width="505.052" height="789.762" x="174.134" y="40.238" color-interpolation-filters="sRGB" filterUnits="userSpaceOnUse">
      <feFlood flood-opacity="0" result="BackgroundImageFix"/>
      <feColorMatrix in="SourceAlpha" values="0 0 0 0 0 0 0 0 0 0 0 0 0 0 0 0 0 0 127 0"/>
      <feOffset dy="4"/>
      <feGaussianBlur stdDeviation="2"/>
      <feColorMatrix values="0 0 0 0 0 0 0 0 0 0 0 0 0 0 0 0 0 0 0.25 0"/>
      <feBlend in2="BackgroundImageFix" result="effect1_dropShadow"/>
      <feBlend in="SourceGraphic" in2="effect1_dropShadow" result="shape"/>
    </filter>
  </defs>
</svg>
