<svg xmlns="http://www.w3.org/2000/svg" width="100" height="102" fill="none" viewBox="0 0 100 102">
  <path fill="#2F80ED" fill-rule="evenodd" d="M45.544 54.826c9.992 9.402 26.055 8.562 35.877-1.876 9.823-10.439 9.686-26.523-.306-35.926-9.992-9.402-26.055-8.562-35.877 1.877-9.823 10.439-9.686 26.523.306 35.925zm5.8-6.163c6.733 6.336 17.558 5.77 24.178-1.265 6.62-7.035 6.527-17.874-.207-24.21-6.733-6.337-17.558-5.77-24.178 1.264-6.62 7.035-6.527 17.875.206 24.21z" clip-rule="evenodd"/>
  <path fill="#2F80ED" d="M45.471 46.235l8.653 8.142-31.705 33.694-8.653-8.142z"/>
</svg>
