<svg xmlns="http://www.w3.org/2000/svg" width="100" height="100" fill="none" viewBox="0 0 100 100">
  <path fill="#F9A262" d="M100 50c0 27.614-22.386 50-50 50S0 77.614 0 50 22.386 0 50 0s50 22.386 50 50z"/>
  <path fill="#fff" d="M30.348 45.256l6.68-12.85h3.831l-8.824 16.05V58H28.66v-9.545l-8.824-16.049h3.867l6.645 12.85zm11.285 3.059c0-1.864.363-3.54 1.09-5.028.738-1.488 1.758-2.637 3.058-3.445 1.313-.809 2.807-1.213 4.483-1.213 2.59 0 4.681.896 6.275 2.69 1.605 1.792 2.408 4.177 2.408 7.154v.228c0 1.852-.357 3.516-1.072 4.992-.703 1.465-1.717 2.608-3.041 3.428-1.313.82-2.824 1.23-4.535 1.23-2.578 0-4.67-.896-6.276-2.689-1.593-1.793-2.39-4.166-2.39-7.119v-.228zm3.27.386c0 2.11.486 3.803 1.458 5.08.985 1.278 2.297 1.916 3.938 1.916 1.652 0 2.965-.644 3.937-1.933.973-1.301 1.46-3.117 1.46-5.45 0-2.086-.499-3.773-1.495-5.062-.984-1.3-2.297-1.951-3.937-1.951-1.606 0-2.9.639-3.885 1.916-.984 1.277-1.477 3.105-1.477 5.484zm29.865 7.418c-1.266 1.488-3.124 2.233-5.573 2.233-2.027 0-3.574-.586-4.64-1.758-1.055-1.184-1.588-2.93-1.6-5.239V38.981h3.252v12.287c0 2.882 1.172 4.324 3.516 4.324 2.484 0 4.136-.926 4.957-2.777V38.98h3.252V58h-3.094l-.07-1.88z"/>
</svg>
